<?xml version="1.0" encoding="utf-8"?>

<svg version="1.1" xmlns="http://www.w3.org/2000/svg" xmlns:xlink="http://www.w3.org/1999/xlink" x="0px" y="0px" viewBox="0 0 2000 2000" enable-background="new 0 0 2000 2000" xml:space="preserve">
<g id="Layer_1">
</g>
<g id="Layer_2">
</g>
<g id="Layer_3">
</g>
<g id="Layer_4">
&#x9;<g>
&#x9;&#x9;<path d="M484.2,1005.9c0-32.6-9.7-62.1-28.2-88.8c-17.9-25.8-41.1-45.5-70.4-56.9c-47.8-18.6-95.4-17.3-141.2,6.3&#xA;&#x9;&#x9;&#x9;c-43.6,22.4-70.6,58.3-81.6,105.9c-7.1,31-4.9,61.7,7.4,91c12.9,30.6,32.7,56,61.1,73.7c42.8,26.8,88.5,36.5,138,20.8&#xA;&#x9;&#x9;&#x9;C436.2,1136.6,484.2,1077.2,484.2,1005.9z"></path>
&#x9;&#x9;<path fill="#FFFFFF" d="M484.2,1005.9c-0.1,71.4-48.1,130.7-114.9,151.9c-49.6,15.7-95.2,6-138-20.8&#xA;&#x9;&#x9;&#x9;c-28.3-17.7-48.2-43.1-61.1-73.7c-12.3-29.4-14.5-60-7.4-91c10.9-47.6,38-83.5,81.6-105.9c45.9-23.6,93.4-24.9,141.2-6.3&#xA;&#x9;&#x9;&#x9;c29.3,11.4,52.5,31.2,70.4,56.9C474.5,943.7,484.2,973.3,484.2,1005.9z M230,1043.4c0.5-0.1,1-0.3,1.5-0.4c0-6.1,0-12.2,0-18.2&#xA;&#x9;&#x9;&#x9;c-0.2-27.6-0.4-55.1-0.6-82.7c0-3.5,0.4-6.9,4.8-6.9c4.1,0,5.2,3.3,5.2,6.8c0,35.3,0,70.6,0.1,105.9c0,1.3,1.1,3.3,2.3,3.9&#xA;&#x9;&#x9;&#x9;c2.7,1.5,5.8,2.3,9.4,3.7c0.1-2.6,0.4-4.5,0.3-6.4c-0.2-22.2-0.5-44.5-0.6-66.7c0-1.9,0.3-4.4,1.5-5.6c1.2-1.1,4.4-1.9,5.4-1.1&#xA;&#x9;&#x9;&#x9;c1.8,1.3,3.5,3.9,3.6,6c0.3,23.2,0.3,46.4,0.4,69.6c0,2.2,0.2,4.3,0.3,6.7c1.8,0,3.1,0,4.4,0c7.2,0,7.2,0,7.2-7.2&#xA;&#x9;&#x9;&#x9;c0-24.7,0.1-49.3,0.1-74c0-4.8-0.6-9.7-0.3-14.5c0.1-1.8,1.3-4.3,2.8-5c1.4-0.7,4.5,0,5.5,1.2c1.4,1.8,2.2,4.5,2.2,6.8&#xA;&#x9;&#x9;&#x9;c0.1,28.2,0.1,56.4,0.1,84.6c0,1.7,0.2,3.3,0.3,5c8.6-2.1,11.9-6.6,11.7-15.5c-0.7-30.5-0.4-60.9-0.4-91.4c0-2.7-0.4-5.6,0.2-8.2&#xA;&#x9;&#x9;&#x9;c0.4-1.7,2-3.9,3.6-4.4c1.3-0.5,3.9,0.5,4.9,1.7c1.2,1.4,1.6,3.7,1.6,5.7c0.1,30.6,0.1,61.2,0.2,91.9c0,2,0.4,3.9,0.7,6.7&#xA;&#x9;&#x9;&#x9;c3.2-3,5.9-5.1,8-7.7c1.2-1.4,2.4-3.5,2.4-5.3c0.2-12.4,0.1-24.8,0.1-37.2c-0.1-24.7-0.3-49.3-0.5-74c0-5.3,4.2-8.6,7.8-5.8&#xA;&#x9;&#x9;&#x9;c1.7,1.3,2.6,4.6,2.6,7c0.3,31.9,0.5,63.8,0.7,95.7c0,1.8,0.3,3.6,0.5,6c2.3-2,3.7-3.6,5.4-4.8c4.2-3,5.7-6.8,5.4-12&#xA;&#x9;&#x9;&#x9;c-0.5-9.7-0.2-19.3-0.2-29c-0.1-26.6-0.2-53.2-0.5-79.8c0-3.9,1.3-6.4,5.2-6.6c4.2-0.2,5.4,2.7,5.6,6.3c0.1,1.1,0.1,2.3,0.1,3.4&#xA;&#x9;&#x9;&#x9;c0.1,32.2,0.1,64.5,0.2,96.7c0,1.9,0.3,3.9,0.5,6.6c2.7-2.1,4.3-3.6,6.2-4.7c4-2.3,4.9-5.5,4.8-10c-0.3-20-0.1-40-0.1-60&#xA;&#x9;&#x9;&#x9;c0-5.4,1.9-8.4,5.4-7.9c4.5,0.6,4.6,4.1,4.6,7.7c-0.1,18.2-0.1,36.4,0,54.6c0,2,0.2,4,0.4,6.2c11.4-4.2,11.4-4.2,11.4-15.4&#xA;&#x9;&#x9;&#x9;c0-1.3,0-2.6,0-3.9c0.1-16.9,0.1-33.8,0.3-50.8c0-2,0.4-4.5,1.6-5.7c1.2-1.1,4.3-1.6,5.6-0.8c1.5,0.9,2.8,3.5,2.8,5.4&#xA;&#x9;&#x9;&#x9;c0.1,17.7,0,35.5-0.1,53.2c0,3.8,0,7.6,0,11.7c4.3-0.7,7.9-1.4,12.2-2.1c0-10.1,0-20.1,0-30.1c0-3.9,1.3-6.8,5.7-6.6&#xA;&#x9;&#x9;&#x9;c4.4,0.2,4.6,3.6,4.6,7.1c0,8.7,0.1,17.4,0,26.1c0,3,0.8,4.5,4.3,4.8c11.3,1.1,21.5,5.3,30.6,12.1c5.2,3.8,10.2,7.8,15.4,11.7&#xA;&#x9;&#x9;&#x9;c1.3,1,2.8,1.8,4.8,3.1c-0.2-2.3-0.3-3.5-0.4-4.8c-0.1-1.4-0.3-2.9-0.4-4.3c-1-28-10.7-53-27.1-75.2&#xA;&#x9;&#x9;&#x9;c-33.5-45.2-79.3-64.6-134.7-60.7c-56.9,4-98.3,32.6-123.9,83.6c-8.7,17.4-13.1,35.9-13.6,55.4c0,1.3,0.6,3.4,1.5,3.9&#xA;&#x9;&#x9;&#x9;c4.4,2.2,9,3.9,14.2,6.1c0-6.2-0.1-11.8,0-17.4c0-3.4,1.8-5.7,5.2-5.7c3.5-0.1,4.5,2.5,4.6,5.6c0.2,5.3,1.3,10.7,0.6,15.9&#xA;&#x9;&#x9;&#x9;c-1.2,8.4,3.6,12.2,10.4,16c0.3-2.9,0.7-5.4,0.7-7.8c0-7.7-0.2-15.5-0.2-23.2c0-9.5,0.1-19,0.1-28.5c0-3.4,2-5.8,5.2-5.7&#xA;&#x9;&#x9;&#x9;c3.4,0,5.6,2.1,5.5,6c-0.1,1.4-0.1,2.9-0.1,4.4c0,20.8,0,41.6,0.1,62.4c0,1.5,0.7,3.5,1.8,4.5&#xA;&#x9;&#x9;&#x9;C224.2,1039.4,227.2,1041.3,230,1043.4z M202.4,1090.4c15.2,31.4,66.1,60.8,114.4,61.9c64.1,1.5,110-30.2,141.4-85.2&#xA;&#x9;&#x9;&#x9;c-8.3-10.4-18.4-19.1-31.5-23.3c-5.7-1.8-12-2.4-18-2.3c-17.1,0.3-31.3,7.7-43.5,19.3c-13.1,12.4-26,25-39.1,37.4&#xA;&#x9;&#x9;&#x9;c-9.5,9-20.8,15.2-33.2,19.2c-18,5.8-36,5.4-53.1-3.1c-8.2-4-16-9.1-23.7-14C211.4,1097.5,207.2,1094,202.4,1090.4z M461.7,1055.4&#xA;&#x9;&#x9;&#x9;c1.3-2.8,1.9-5,3.2-6.8c2.1-3,1-4.9-1.3-7c-3.3-2.8-6.4-5.9-9.7-8.7c-28.9-24.2-60.4-24.4-89.5-0.4c-7.4,6.2-14.2,13.1-21.4,19.6&#xA;&#x9;&#x9;&#x9;c-10.3,9.3-19.8,19.6-31.1,27.5c-24.1,17-50,20.1-76.8,5.6c-13.4-7.3-25.2-16.6-36.6-26.6c-6.4-5.7-13.7-10.5-21.4-16.3&#xA;&#x9;&#x9;&#x9;c0.5,9.1,3.8,17.2,9.8,21.9c16.4,12.7,32.9,25.3,49.8,37.3c8.2,5.8,18.1,8.4,28.3,8.9c19.3,0.9,36.3-5.9,50.7-18&#xA;&#x9;&#x9;&#x9;c15.8-13.2,30.2-28,45.5-41.8c25.4-23,61.5-30.8,93-1.8C456.6,1050.8,458.9,1052.8,461.7,1055.4z M468.6,1031.9&#xA;&#x9;&#x9;&#x9;c0.4-2.5,0.5-4.1,1.1-5.6c1.6-4.2,0.4-7.2-3.2-9.9c-6.3-4.7-12.2-10-18.6-14.6c-20.8-14.8-43.3-16-66.6-6.8&#xA;&#x9;&#x9;&#x9;c-13.7,5.4-24.9,14.6-35.5,24.7c-10.4,9.9-20.5,20.1-31.2,29.6c-26.2,23.1-57.9,26.4-87.8,4.3c-12.6-9.3-24.5-19.3-37.1-28.6&#xA;&#x9;&#x9;&#x9;c-5.1-3.7-11.1-6.2-17.7-9.7c0.2,3.6,0.5,5.5,0.3,7.4c-0.4,4.4,1.4,6.8,5.4,8.9c12.2,6.3,22.8,14.9,33.2,23.9&#xA;&#x9;&#x9;&#x9;c8.5,7.3,17.6,14.3,27.3,19.8c20.3,11.5,41.5,11.3,61.7-0.2c8.4-4.8,15.7-11.7,23.1-18.1c13.8-12.1,26.7-25.4,41.1-36.5&#xA;&#x9;&#x9;&#x9;c28.4-21.9,62.4-22.3,90.6,0.8C459.1,1024.7,463.6,1028.1,468.6,1031.9z"></path>
&#x9;&#x9;<path d="M230,1043.4c-2.8-2.1-5.8-4.1-8.3-6.5c-1.1-1-1.7-3-1.8-4.5c-0.1-20.8-0.1-41.6-0.1-62.4c0-1.5,0-2.9,0.1-4.4&#xA;&#x9;&#x9;&#x9;c0.2-3.8-2-6-5.5-6c-3.3,0-5.2,2.3-5.2,5.7c-0.1,9.5-0.1,19-0.1,28.5c0,7.7,0.2,15.5,0.2,23.2c0,2.5-0.4,5-0.7,7.8&#xA;&#x9;&#x9;&#x9;c-6.8-3.8-11.5-7.1-11.2-15.7c0.2-5.5,0.4-10.9,0.2-16.2c-0.1-3.1-1.2-5.6-4.6-5.6c-3.4,0.1-5.2,2.4-5.2,5.7&#xA;&#x9;&#x9;&#x9;c-0.1,5.6,0,11.2,0,17.4c-5.2-2.2-9.8-3.9-14.2-6.1c-0.9-0.5-1.6-2.6-1.5-3.9c0.5-19.4,4.8-38,13.6-55.4&#xA;&#x9;&#x9;&#x9;c25.7-51,67-79.6,123.9-83.6c55.3-3.9,101.2,15.5,134.7,60.7c16.5,22.2,26.1,47.2,27.1,75.2c0.1,1.4,0.3,2.9,0.4,4.3&#xA;&#x9;&#x9;&#x9;c0.1,1.3,0.2,2.5,0.4,4.8c-2-1.3-3.5-2.1-4.8-3.1c-5.1-3.9-10.2-7.9-15.4-11.7c-9.1-6.7-19.3-11-30.6-12.1&#xA;&#x9;&#x9;&#x9;c-3.5-0.3-4.3-1.8-4.3-4.8c0.1-8.7,0-17.4,0-26.1c0-3.4-0.2-6.8-4.6-7.1c-4.4-0.2-5.8,2.7-5.7,6.6c0,10,0,19.9,0,30.1&#xA;&#x9;&#x9;&#x9;c-4.3,0.7-7.9,1.3-12.2,2.1c0-4,0-7.9,0-11.7c0.1-17.7,0.2-35.5,0.1-53.2c0-1.9-1.3-4.5-2.8-5.4c-1.3-0.8-4.4-0.3-5.6,0.8&#xA;&#x9;&#x9;&#x9;c-1.2,1.2-1.6,3.7-1.6,5.7c-0.2,16.9-0.2,33.8-0.3,50.8c0,1.3,0,2.6,0,3.9c-0.1,11.2-0.1,11.2-11.4,15.4c-0.1-2.2-0.4-4.2-0.4-6.2&#xA;&#x9;&#x9;&#x9;c0-18.2,0-36.4,0-54.6c0-3.6-0.1-7.1-4.6-7.7c-3.4-0.5-5.4,2.6-5.4,7.9c0,20-0.1,40,0.1,60c0.1,4.5-0.8,7.7-4.8,10&#xA;&#x9;&#x9;&#x9;c-1.9,1.1-3.6,2.7-6.2,4.7c-0.2-2.7-0.5-4.6-0.5-6.6c-0.1-32.2-0.1-64.5-0.2-96.7c0-1.1,0-2.3-0.1-3.4c-0.2-3.6-1.4-6.6-5.6-6.3&#xA;&#x9;&#x9;&#x9;c-3.9,0.2-5.2,2.6-5.2,6.6c0.3,26.6,0.4,53.2,0.5,79.8c0.1,9.7-0.2,19.4,0.2,29c0.2,5.2-1.2,9-5.4,12c-1.7,1.2-3.1,2.8-5.4,4.8&#xA;&#x9;&#x9;&#x9;c-0.2-2.4-0.5-4.2-0.5-6c-0.2-31.9-0.3-63.8-0.7-95.7c0-2.4-0.9-5.7-2.6-7c-3.6-2.8-7.8,0.5-7.8,5.8c0.1,24.7,0.3,49.3,0.5,74&#xA;&#x9;&#x9;&#x9;c0.1,12.4,0.1,24.8-0.1,37.2c0,1.8-1.2,3.9-2.4,5.3c-2.2,2.5-4.8,4.6-8,7.7c-0.3-2.8-0.7-4.8-0.7-6.7c-0.1-30.6-0.1-61.2-0.2-91.9&#xA;&#x9;&#x9;&#x9;c0-1.9-0.5-4.3-1.6-5.7c-1-1.2-3.6-2.2-4.9-1.7c-1.6,0.6-3.2,2.7-3.6,4.4c-0.6,2.6-0.2,5.4-0.2,8.2c0.1,30.5-0.2,60.9,0.4,91.4&#xA;&#x9;&#x9;&#x9;c0.2,8.9-3.1,13.4-11.7,15.5c-0.1-1.6-0.3-3.3-0.3-5c0-28.2,0.1-56.4-0.1-84.6c0-2.3-0.8-5.1-2.2-6.8c-0.9-1.2-4-1.8-5.5-1.2&#xA;&#x9;&#x9;&#x9;c-1.4,0.7-2.7,3.2-2.8,5c-0.2,4.8,0.3,9.7,0.3,14.5c0,24.7,0,49.3-0.1,74c0,7.2,0,7.2-7.2,7.2c-1.3,0-2.6,0-4.4,0&#xA;&#x9;&#x9;&#x9;c-0.1-2.4-0.3-4.6-0.3-6.7c-0.1-23.2-0.1-46.4-0.4-69.6c0-2.1-1.8-4.7-3.6-6c-1.1-0.8-4.3-0.1-5.4,1.1c-1.2,1.2-1.5,3.7-1.5,5.6&#xA;&#x9;&#x9;&#x9;c0.1,22.2,0.4,44.5,0.6,66.7c0,1.9-0.2,3.8-0.3,6.4c-3.5-1.3-6.6-2.2-9.4-3.7c-1.2-0.6-2.2-2.6-2.3-3.9&#xA;&#x9;&#x9;&#x9;c-0.1-35.3-0.1-70.6-0.1-105.9c0-3.5-1.1-6.7-5.2-6.8c-4.4,0-4.9,3.4-4.8,6.9c0.2,27.6,0.4,55.1,0.6,82.7c0,6.1,0,12.2,0,18.2&#xA;&#x9;&#x9;&#x9;C231,1043.2,230.5,1043.3,230,1043.4z"></path>
&#x9;&#x9;<path d="M202.4,1090.4c4.8,3.6,9,7.2,13.5,10c7.7,4.9,15.5,9.9,23.7,14c17.2,8.4,35.1,8.9,53.1,3.1c12.4-4,23.7-10.2,33.2-19.2&#xA;&#x9;&#x9;&#x9;c13.1-12.4,26.1-25,39.1-37.4c12.2-11.6,26.4-19,43.5-19.3c6-0.1,12.3,0.5,18,2.3c13.1,4.2,23.2,12.8,31.5,23.3&#xA;&#x9;&#x9;&#x9;c-31.4,55-77.3,86.7-141.4,85.2C268.5,1151.1,217.6,1121.8,202.4,1090.4z"></path>
&#x9;&#x9;<path d="M461.7,1055.4c-2.8-2.5-5.1-4.6-7.3-6.6c-31.5-29-67.6-21.2-93,1.8c-15.3,13.8-29.7,28.6-45.5,41.8&#xA;&#x9;&#x9;&#x9;c-14.4,12.1-31.5,18.9-50.7,18c-10.1-0.5-20-3.1-28.3-8.9c-16.9-12-33.4-24.6-49.8-37.3c-6-4.7-9.3-12.7-9.8-21.9&#xA;&#x9;&#x9;&#x9;c7.7,5.8,15,10.6,21.4,16.3c11.4,10.1,23.2,19.4,36.6,26.6c26.8,14.5,52.7,11.4,76.8-5.6c11.2-7.9,20.8-18.2,31.1-27.5&#xA;&#x9;&#x9;&#x9;c7.2-6.5,13.9-13.4,21.4-19.6c29-24,60.6-23.8,89.5,0.4c3.3,2.8,6.4,5.9,9.7,8.7c2.3,2,3.4,4,1.3,7&#xA;&#x9;&#x9;&#x9;C463.6,1050.4,463,1052.6,461.7,1055.4z"></path>
&#x9;&#x9;<path d="M468.6,1031.9c-4.9-3.9-9.4-7.2-13.8-10.8c-28.3-23.1-62.3-22.7-90.6-0.8c-14.5,11.2-27.3,24.5-41.1,36.5&#xA;&#x9;&#x9;&#x9;c-7.4,6.4-14.7,13.3-23.1,18.1c-20.3,11.5-41.4,11.6-61.7,0.2c-9.7-5.5-18.8-12.5-27.3-19.8c-10.4-9-21-17.6-33.2-23.9&#xA;&#x9;&#x9;&#x9;c-4-2.1-5.8-4.5-5.4-8.9c0.2-1.9-0.1-3.8-0.3-7.4c6.6,3.6,12.6,6,17.7,9.7c12.6,9.2,24.6,19.3,37.1,28.6&#xA;&#x9;&#x9;&#x9;c29.9,22.1,61.6,18.8,87.8-4.3c10.8-9.5,20.8-19.7,31.2-29.6c10.6-10.1,21.8-19.3,35.5-24.7c23.3-9.2,45.7-8,66.6,6.8&#xA;&#x9;&#x9;&#x9;c6.4,4.6,12.3,9.9,18.6,14.6c3.5,2.7,4.8,5.6,3.2,9.9C469,1027.8,469,1029.4,468.6,1031.9z"></path>
&#x9;</g>
&#x9;<g>
&#x9;&#x9;<path d="M544.8,903h101.6c5.8,0,9.9,1.2,12.4,3.7c2.5,2.5,3.7,6.6,3.7,12.3v74.8c0,6.8-1.9,11.4-5.7,13.8&#xA;&#x9;&#x9;&#x9;c-2.4,1.5-5.8,2.3-10.3,2.3H544.8V903z M566.2,924.5v64.1h69.5c3.6,0,5.4-1.8,5.4-5.3v-53.5c0-3.5-1.8-5.3-5.4-5.3H566.2z"></path>
&#x9;&#x9;<path d="M678,1009.9v-90.9c0-6.8,1.9-11.3,5.7-13.8c2.4-1.5,5.8-2.3,10.4-2.3h85.5c6,0,10.5,2.6,13.7,7.7c1.5,2.5,2.3,5.3,2.3,8.3&#xA;&#x9;&#x9;&#x9;v90.9h-21.4v-42.8h-74.9v42.8H678z M774.3,945.8v-16c0-1.5-0.5-2.8-1.5-3.8s-2.3-1.5-3.9-1.5h-64.2c-3.5,0-5.3,1.8-5.3,5.3v16&#xA;&#x9;&#x9;&#x9;H774.3z"></path>
&#x9;&#x9;<path d="M805.7,903H902v21.4h-37.5v85.5h-21.4v-85.5h-37.5V903z"></path>
&#x9;&#x9;<path d="M911.9,1009.9v-90.9c0-6.8,1.9-11.3,5.7-13.8c2.4-1.5,5.8-2.3,10.4-2.3h85.5c6,0,10.5,2.6,13.7,7.7&#xA;&#x9;&#x9;&#x9;c1.5,2.5,2.3,5.3,2.3,8.3v90.9h-21.4v-42.8h-74.9v42.8H911.9z M1008.1,945.8v-16c0-1.5-0.5-2.8-1.5-3.8s-2.3-1.5-3.9-1.5h-64.2&#xA;&#x9;&#x9;&#x9;c-3.5,0-5.3,1.8-5.3,5.3v16H1008.1z"></path>
&#x9;&#x9;<path d="M1135.8,1009.9h-21.4V903h21.4V1009.9z"></path>
&#x9;&#x9;<path d="M1226.4,904.7c1.2-1.1,2.9-1.6,5.3-1.6h53.5c6,0,10.6,2.6,13.8,7.8c1.5,2.5,2.3,5.2,2.3,8.3v90.9h-21.4v-80.2&#xA;&#x9;&#x9;&#x9;c0-1.5-0.5-2.8-1.5-3.8c-1-1-2.3-1.5-3.8-1.5h-32.1c-3.6,0-5.4,1.8-5.4,5.3v80.2h-21.4v-80.2c0-1.5-0.5-2.8-1.5-3.8&#xA;&#x9;&#x9;&#x9;c-1-1-2.3-1.5-3.8-1.5h-32.1c-3.5,0-5.3,1.8-5.3,5.3v80.2h-21.4v-90.9c0-6.8,1.9-11.3,5.7-13.8c2.4-1.5,5.8-2.3,10.4-2.3h53.5&#xA;&#x9;&#x9;&#x9;C1222.9,903,1224.7,903.6,1226.4,904.7z"></path>
&#x9;&#x9;<path d="M1316.9,1009.9V903h101.6c6,0,10.5,2.6,13.7,7.7c1.5,2.5,2.3,5.3,2.3,8.3v32.1c0,5.3-2.5,9.8-7.4,13.4&#xA;&#x9;&#x9;&#x9;c-2.4,1.7-5.3,2.6-8.6,2.6h-80.2v42.8H1316.9z M1413.2,929.8c0-1.5-0.5-2.8-1.5-3.8s-2.3-1.5-3.9-1.5h-69.5v21.3h69.7&#xA;&#x9;&#x9;&#x9;c3.5,0,5.2-1.8,5.2-5.3V929.8z"></path>
&#x9;&#x9;<path d="M1442.9,1009.9v-90.9c0-6.8,1.9-11.3,5.7-13.8c2.4-1.5,5.8-2.3,10.4-2.3h85.5c6,0,10.5,2.6,13.7,7.7&#xA;&#x9;&#x9;&#x9;c1.5,2.5,2.3,5.3,2.3,8.3v90.9h-21.4v-42.8h-74.9v42.8H1442.9z M1539.2,945.8v-16c0-1.5-0.5-2.8-1.5-3.8s-2.3-1.5-3.9-1.5h-64.2&#xA;&#x9;&#x9;&#x9;c-3.5,0-5.3,1.8-5.3,5.3v16H1539.2z"></path>
&#x9;&#x9;<path d="M1576.2,993.9v-74.8c0-6.8,1.9-11.3,5.7-13.8c2.4-1.5,5.8-2.3,10.4-2.3h101.5v21.4h-91c-3.5,0-5.3,1.8-5.3,5.3v53.5&#xA;&#x9;&#x9;&#x9;c0,3.5,1.8,5.3,5.3,5.3h91v21.4h-101.5c-8.4,0-13.4-2.7-15-8C1576.6,999.7,1576.2,997,1576.2,993.9z"></path>
&#x9;&#x9;<path d="M1706.7,903h96.3v21.4h-37.5v85.5h-21.4v-85.5h-37.5V903z"></path>
&#x9;</g>
&#x9;<g>
&#x9;&#x9;<path d="M589.8,1080.2c2.2,1.8,4,4,5.3,6.6c1.3,2.6,2,5.4,2,8.4c0,3.8-1,7.2-2.9,10.2c-1.9,3-4.7,5.4-8.4,7.1&#xA;&#x9;&#x9;&#x9;c-3.7,1.7-8,2.6-12.9,2.6h-27.7v-74.2h26.6c5,0,9.3,0.8,12.9,2.5c3.5,1.7,6.2,3.9,8,6.8c1.8,2.8,2.7,6,2.7,9.6&#xA;&#x9;&#x9;&#x9;c0,4.4-1.2,8-3.6,10.9c-2.4,2.9-5.5,5-9.4,6.2C585.1,1077.3,587.6,1078.4,589.8,1080.2z M555,1072.9h16.3c4.5,0,8.1-1.1,10.5-3.2&#xA;&#x9;&#x9;&#x9;c2.5-2.1,3.7-5.1,3.7-8.8c0-3.8-1.2-6.7-3.7-8.8c-2.5-2.1-6.1-3.2-10.8-3.2H555V1072.9z M583.4,1103.7c2.7-2.3,4-5.4,4-9.5&#xA;&#x9;&#x9;&#x9;c0-4.1-1.4-7.4-4.3-9.7c-2.8-2.4-6.6-3.6-11.4-3.6H555v26.2h17.1C576.9,1107.1,580.7,1106,583.4,1103.7z"></path>
&#x9;&#x9;<path d="M631.5,1040.9v47c0,6.6,1.6,11.5,4.8,14.7c3.2,3.2,7.7,4.8,13.5,4.8c5.7,0,10.1-1.6,13.4-4.8c3.2-3.2,4.8-8.1,4.8-14.7&#xA;&#x9;&#x9;&#x9;v-47h9.7v46.8c0,6.2-1.2,11.4-3.7,15.6c-2.5,4.2-5.8,7.4-10.1,9.4c-4.2,2.1-9,3.1-14.2,3.1c-5.3,0-10-1-14.2-3.1&#xA;&#x9;&#x9;&#x9;c-4.2-2.1-7.6-5.2-10-9.4c-2.4-4.2-3.7-9.4-3.7-15.6v-46.8H631.5z"></path>
&#x9;&#x9;<path d="M715.8,1113.2c-3.9-1.7-6.9-4.2-9.1-7.2c-2.2-3.1-3.3-6.7-3.4-10.7h10.3c0.4,3.5,1.8,6.4,4.3,8.8c2.5,2.4,6.2,3.6,11,3.6&#xA;&#x9;&#x9;&#x9;c4.6,0,8.3-1.2,10.9-3.5c2.7-2.3,4-5.3,4-8.9c0-2.8-0.8-5.1-2.3-6.9c-1.6-1.8-3.5-3.1-5.9-4c-2.3-0.9-5.5-1.9-9.5-3&#xA;&#x9;&#x9;&#x9;c-4.9-1.3-8.8-2.6-11.8-3.8c-2.9-1.3-5.5-3.3-7.6-6c-2.1-2.7-3.1-6.4-3.1-11c0-4,1-7.6,3.1-10.8c2.1-3.1,5-5.5,8.7-7.2&#xA;&#x9;&#x9;&#x9;c3.7-1.7,8-2.6,12.8-2.6c7,0,12.7,1.7,17.1,5.2c4.4,3.5,6.9,8.1,7.5,13.8h-10.6c-0.4-2.8-1.8-5.3-4.5-7.5&#xA;&#x9;&#x9;&#x9;c-2.6-2.2-6.1-3.2-10.4-3.2c-4,0-7.3,1-9.9,3.1c-2.6,2.1-3.8,5-3.8,8.8c0,2.7,0.8,4.9,2.3,6.6c1.5,1.7,3.4,3,5.6,3.9&#xA;&#x9;&#x9;&#x9;c2.2,0.9,5.4,1.9,9.4,3c4.9,1.3,8.8,2.7,11.8,4c3,1.3,5.5,3.3,7.7,6.1c2.1,2.7,3.2,6.4,3.2,11.1c0,3.6-1,7-2.9,10.2&#xA;&#x9;&#x9;&#x9;c-1.9,3.2-4.8,5.8-8.5,7.8c-3.8,2-8.2,3-13.3,3C724,1115.9,719.7,1115,715.8,1113.2z"></path>
&#x9;&#x9;<path d="M789.1,1040.9v74.2h-9.7v-74.2H789.1z"></path>
&#x9;&#x9;<path d="M875.4,1115.1h-9.7l-39-59.1v59.1h-9.7v-74.3h9.7l39,59v-59h9.7V1115.1z"></path>
&#x9;&#x9;<path d="M913.1,1048.8v24.8h27v8h-27v25.6h30.2v8h-39.9v-74.3h39.9v8H913.1z"></path>
&#x9;&#x9;<path d="M979.9,1113.2c-3.9-1.7-6.9-4.2-9.1-7.2c-2.2-3.1-3.3-6.7-3.4-10.7h10.3c0.4,3.5,1.8,6.4,4.3,8.8c2.5,2.4,6.2,3.6,11,3.6&#xA;&#x9;&#x9;&#x9;c4.6,0,8.3-1.2,10.9-3.5c2.7-2.3,4-5.3,4-8.9c0-2.8-0.8-5.1-2.3-6.9c-1.6-1.8-3.5-3.1-5.9-4c-2.3-0.9-5.5-1.9-9.5-3&#xA;&#x9;&#x9;&#x9;c-4.9-1.3-8.8-2.6-11.8-3.8c-2.9-1.3-5.5-3.3-7.6-6c-2.1-2.7-3.1-6.4-3.1-11c0-4,1-7.6,3.1-10.8c2.1-3.1,5-5.5,8.7-7.2&#xA;&#x9;&#x9;&#x9;c3.7-1.7,8-2.6,12.8-2.6c7,0,12.7,1.7,17.1,5.2c4.4,3.5,6.9,8.1,7.5,13.8h-10.6c-0.4-2.8-1.8-5.3-4.5-7.5&#xA;&#x9;&#x9;&#x9;c-2.6-2.2-6.1-3.2-10.4-3.2c-4,0-7.3,1-9.9,3.1c-2.6,2.1-3.8,5-3.8,8.8c0,2.7,0.8,4.9,2.3,6.6c1.5,1.7,3.4,3,5.6,3.9&#xA;&#x9;&#x9;&#x9;c2.2,0.9,5.4,1.9,9.4,3c4.9,1.3,8.8,2.7,11.8,4c3,1.3,5.5,3.3,7.7,6.1c2.1,2.7,3.2,6.4,3.2,11.1c0,3.6-1,7-2.9,10.2&#xA;&#x9;&#x9;&#x9;c-1.9,3.2-4.8,5.8-8.5,7.8c-3.8,2-8.2,3-13.3,3C988.2,1115.9,983.8,1115,979.9,1113.2z"></path>
&#x9;&#x9;<path d="M1053.9,1113.2c-3.9-1.7-6.9-4.2-9.1-7.2c-2.2-3.1-3.3-6.7-3.4-10.7h10.3c0.4,3.5,1.8,6.4,4.3,8.8c2.5,2.4,6.2,3.6,11,3.6&#xA;&#x9;&#x9;&#x9;c4.6,0,8.3-1.2,10.9-3.5c2.7-2.3,4-5.3,4-8.9c0-2.8-0.8-5.1-2.3-6.9c-1.6-1.8-3.5-3.1-5.9-4c-2.3-0.9-5.5-1.9-9.5-3&#xA;&#x9;&#x9;&#x9;c-4.9-1.3-8.8-2.6-11.8-3.8c-2.9-1.3-5.5-3.3-7.6-6c-2.1-2.7-3.1-6.4-3.1-11c0-4,1-7.6,3.1-10.8c2.1-3.1,5-5.5,8.7-7.2&#xA;&#x9;&#x9;&#x9;c3.7-1.7,8-2.6,12.8-2.6c7,0,12.7,1.7,17.1,5.2c4.4,3.5,6.9,8.1,7.5,13.8h-10.6c-0.4-2.8-1.8-5.3-4.5-7.5&#xA;&#x9;&#x9;&#x9;c-2.6-2.2-6.1-3.2-10.4-3.2c-4,0-7.3,1-9.9,3.1c-2.6,2.1-3.8,5-3.8,8.8c0,2.7,0.8,4.9,2.3,6.6c1.5,1.7,3.4,3,5.6,3.9&#xA;&#x9;&#x9;&#x9;c2.2,0.9,5.4,1.9,9.4,3c4.9,1.3,8.8,2.7,11.8,4c3,1.3,5.5,3.3,7.7,6.1c2.1,2.7,3.2,6.4,3.2,11.1c0,3.6-1,7-2.9,10.2&#xA;&#x9;&#x9;&#x9;c-1.9,3.2-4.8,5.8-8.5,7.8c-3.8,2-8.2,3-13.3,3C1062.2,1115.9,1057.8,1115,1053.9,1113.2z"></path>
&#x9;&#x9;<path d="M1167.8,1113.2c-3.9-1.7-6.9-4.2-9.1-7.2c-2.2-3.1-3.3-6.7-3.4-10.7h10.3c0.4,3.5,1.8,6.4,4.3,8.8c2.5,2.4,6.2,3.6,11,3.6&#xA;&#x9;&#x9;&#x9;c4.6,0,8.3-1.2,10.9-3.5c2.7-2.3,4-5.3,4-8.9c0-2.8-0.8-5.1-2.3-6.9c-1.6-1.8-3.5-3.1-5.9-4c-2.3-0.9-5.5-1.9-9.5-3&#xA;&#x9;&#x9;&#x9;c-4.9-1.3-8.8-2.6-11.8-3.8c-2.9-1.3-5.5-3.3-7.6-6c-2.1-2.7-3.1-6.4-3.1-11c0-4,1-7.6,3.1-10.8c2.1-3.1,5-5.5,8.7-7.2&#xA;&#x9;&#x9;&#x9;c3.7-1.7,8-2.6,12.8-2.6c7,0,12.7,1.7,17.1,5.2c4.4,3.5,6.9,8.1,7.5,13.8h-10.6c-0.4-2.8-1.8-5.3-4.5-7.5&#xA;&#x9;&#x9;&#x9;c-2.6-2.2-6.1-3.2-10.4-3.2c-4,0-7.3,1-9.9,3.1c-2.6,2.1-3.8,5-3.8,8.8c0,2.7,0.8,4.9,2.3,6.6c1.5,1.7,3.4,3,5.6,3.9&#xA;&#x9;&#x9;&#x9;c2.2,0.9,5.4,1.9,9.4,3c4.9,1.3,8.8,2.7,11.8,4c3,1.3,5.5,3.3,7.7,6.1c2.1,2.7,3.2,6.4,3.2,11.1c0,3.6-1,7-2.9,10.2&#xA;&#x9;&#x9;&#x9;c-1.9,3.2-4.8,5.8-8.5,7.8c-3.8,2-8.2,3-13.3,3C1176.1,1115.9,1171.7,1115,1167.8,1113.2z"></path>
&#x9;&#x9;<path d="M1246.2,1111c-5.7-3.2-10.2-7.7-13.5-13.5c-3.3-5.8-5-12.3-5-19.5s1.7-13.8,5-19.5c3.3-5.8,7.8-10.3,13.5-13.5&#xA;&#x9;&#x9;&#x9;c5.7-3.2,12-4.8,18.8-4.8c7,0,13.3,1.6,19,4.8c5.7,3.2,10.1,7.7,13.4,13.5c3.3,5.8,4.9,12.3,4.9,19.6c0,7.3-1.6,13.8-4.9,19.6&#xA;&#x9;&#x9;&#x9;c-3.3,5.7-7.7,10.2-13.4,13.5c-5.7,3.2-12,4.8-19,4.8C1258.2,1115.9,1251.9,1114.2,1246.2,1111z M1279.1,1103.8&#xA;&#x9;&#x9;&#x9;c4.2-2.4,7.4-5.9,9.8-10.3c2.4-4.5,3.6-9.7,3.6-15.5c0-6-1.2-11.2-3.6-15.6c-2.4-4.4-5.6-7.9-9.7-10.3c-4.1-2.4-8.8-3.6-14.1-3.6&#xA;&#x9;&#x9;&#x9;c-5.3,0-9.9,1.2-14.1,3.6c-4.1,2.4-7.4,5.8-9.7,10.3c-2.4,4.4-3.6,9.6-3.6,15.6c0,5.9,1.2,11.1,3.6,15.5c2.4,4.5,5.6,7.9,9.8,10.3&#xA;&#x9;&#x9;&#x9;c4.2,2.4,8.8,3.6,14,3.6C1270.3,1107.4,1274.9,1106.2,1279.1,1103.8z"></path>
&#x9;&#x9;<path d="M1336.3,1107.2h26v7.9h-35.7v-74.2h9.7V1107.2z"></path>
&#x9;&#x9;<path d="M1393.6,1040.9v47c0,6.6,1.6,11.5,4.8,14.7c3.2,3.2,7.7,4.8,13.5,4.8c5.7,0,10.1-1.6,13.4-4.8c3.2-3.2,4.8-8.1,4.8-14.7&#xA;&#x9;&#x9;&#x9;v-47h9.7v46.8c0,6.2-1.2,11.4-3.7,15.6c-2.5,4.2-5.8,7.4-10.1,9.4c-4.2,2.1-9,3.1-14.2,3.1c-5.3,0-10-1-14.2-3.1&#xA;&#x9;&#x9;&#x9;c-4.2-2.1-7.6-5.2-10-9.4c-2.4-4.2-3.7-9.4-3.7-15.6v-46.8H1393.6z"></path>
&#x9;&#x9;<path d="M1513.1,1040.9v7.9h-20.2v66.3h-9.7v-66.3h-20.3v-7.9H1513.1z"></path>
&#x9;&#x9;<path d="M1546.3,1040.9v74.2h-9.7v-74.2H1546.3z"></path>
&#x9;&#x9;<path d="M1589,1111c-5.7-3.2-10.2-7.7-13.5-13.5c-3.3-5.8-5-12.3-5-19.5s1.7-13.8,5-19.5c3.3-5.8,7.8-10.3,13.5-13.5&#xA;&#x9;&#x9;&#x9;c5.7-3.2,12-4.8,18.8-4.8c7,0,13.3,1.6,19,4.8c5.7,3.2,10.1,7.7,13.4,13.5c3.3,5.8,4.9,12.3,4.9,19.6c0,7.3-1.6,13.8-4.9,19.6&#xA;&#x9;&#x9;&#x9;c-3.3,5.7-7.7,10.2-13.4,13.5c-5.7,3.2-12,4.8-19,4.8C1601,1115.9,1594.7,1114.2,1589,1111z M1621.9,1103.8&#xA;&#x9;&#x9;&#x9;c4.2-2.4,7.4-5.9,9.8-10.3c2.4-4.5,3.6-9.7,3.6-15.5c0-6-1.2-11.2-3.6-15.6c-2.4-4.4-5.6-7.9-9.7-10.3c-4.1-2.4-8.8-3.6-14.1-3.6&#xA;&#x9;&#x9;&#x9;c-5.3,0-9.9,1.2-14.1,3.6c-4.1,2.4-7.4,5.8-9.7,10.3c-2.4,4.4-3.6,9.6-3.6,15.6c0,5.9,1.2,11.1,3.6,15.5c2.4,4.5,5.6,7.9,9.8,10.3&#xA;&#x9;&#x9;&#x9;c4.2,2.4,8.8,3.6,14,3.6C1613.1,1107.4,1617.7,1106.2,1621.9,1103.8z"></path>
&#x9;&#x9;<path d="M1727.8,1115.1h-9.7l-39-59.1v59.1h-9.7v-74.3h9.7l39,59v-59h9.7V1115.1z"></path>
&#x9;&#x9;<path d="M1766.2,1113.2c-3.9-1.7-6.9-4.2-9.1-7.2c-2.2-3.1-3.3-6.7-3.4-10.7h10.3c0.4,3.5,1.8,6.4,4.3,8.8c2.5,2.4,6.2,3.6,11,3.6&#xA;&#x9;&#x9;&#x9;c4.6,0,8.3-1.2,10.9-3.5c2.7-2.3,4-5.3,4-8.9c0-2.8-0.8-5.1-2.3-6.9c-1.6-1.8-3.5-3.1-5.9-4c-2.3-0.9-5.5-1.9-9.5-3&#xA;&#x9;&#x9;&#x9;c-4.9-1.3-8.8-2.6-11.8-3.8c-2.9-1.3-5.5-3.3-7.6-6c-2.1-2.7-3.1-6.4-3.1-11c0-4,1-7.6,3.1-10.8c2.1-3.1,5-5.5,8.7-7.2&#xA;&#x9;&#x9;&#x9;c3.7-1.7,8-2.6,12.8-2.6c7,0,12.7,1.7,17.1,5.2c4.4,3.5,6.9,8.1,7.5,13.8h-10.6c-0.4-2.8-1.8-5.3-4.5-7.5&#xA;&#x9;&#x9;&#x9;c-2.6-2.2-6.1-3.2-10.4-3.2c-4,0-7.3,1-9.9,3.1c-2.6,2.1-3.8,5-3.8,8.8c0,2.7,0.8,4.9,2.3,6.6c1.5,1.7,3.4,3,5.6,3.9&#xA;&#x9;&#x9;&#x9;c2.2,0.9,5.4,1.9,9.4,3c4.9,1.3,8.8,2.7,11.8,4c3,1.3,5.5,3.3,7.7,6.1c2.1,2.7,3.2,6.4,3.2,11.1c0,3.6-1,7-2.9,10.2&#xA;&#x9;&#x9;&#x9;c-1.9,3.2-4.8,5.8-8.5,7.8c-3.8,2-8.2,3-13.3,3C1774.4,1115.9,1770,1115,1766.2,1113.2z"></path>
&#x9;</g>
</g>
</svg>