<?xml version="1.0" encoding="utf-8"?>

<svg version="1.1" xmlns="http://www.w3.org/2000/svg" xmlns:xlink="http://www.w3.org/1999/xlink" x="0px" y="0px" viewBox="0 0 2000 2000" enable-background="new 0 0 2000 2000" xml:space="preserve">
<g id="Layer_1">
</g>
<g id="Layer_2">
</g>
<g id="Layer_3">
&#x9;<g>
&#x9;&#x9;<path d="M1480,875.2c-0.1-100.3-29.9-191.3-87-273.4c-55.2-79.4-126.5-140.2-216.8-175.3c-147.2-57.4-293.6-53.2-434.8,19.3&#xA;&#x9;&#x9;&#x9;C607.3,514.6,524,625.2,490.3,771.8c-21.9,95.3-15.2,189.8,22.8,280.2c39.6,94.1,100.8,172.3,188,226.8&#xA;&#x9;&#x9;&#x9;c131.9,82.4,272.4,112.4,424.9,64.1C1332,1277.7,1479.8,1094.9,1480,875.2z"></path>
&#x9;&#x9;<path fill="#FFFFFF" d="M1480,875.2c-0.2,219.7-148,402.5-353.9,467.7c-152.6,48.3-293.1,18.3-424.9-64.1&#xA;&#x9;&#x9;&#x9;c-87.2-54.5-148.4-132.7-188-226.8c-38-90.4-44.7-184.9-22.8-280.2c33.7-146.6,117-257.2,251.1-326.1&#xA;&#x9;&#x9;&#x9;c141.2-72.5,287.6-76.6,434.8-19.3c90.2,35.2,161.6,96,216.8,175.3C1450.1,683.9,1479.8,774.9,1480,875.2z M697.2,990.9&#xA;&#x9;&#x9;&#x9;c1.5-0.4,3-0.8,4.6-1.2c0-18.7,0.1-37.4,0-56.2c-0.6-84.9-1.2-169.7-1.8-254.6c-0.1-10.6,1.4-21.2,14.9-21.1&#xA;&#x9;&#x9;&#x9;c12.7,0.1,16.1,10.1,16.1,20.9c0.1,108.6,0,217.3,0.5,325.9c0,4.1,3.4,10.1,6.9,12c8.5,4.6,17.9,7.2,28.9,11.3&#xA;&#x9;&#x9;&#x9;c0.5-8,1.1-13.8,1.1-19.6c-0.6-68.5-1.4-137-1.8-205.4c0-5.9,0.9-13.7,4.6-17.3c3.6-3.5,13.4-5.7,16.7-3.3&#xA;&#x9;&#x9;&#x9;c5.4,3.9,10.9,12,11,18.4c1,71.4,1,142.9,1.3,214.4c0,6.7,0.6,13.4,1,20.7c5.6,0,9.6,0,13.5,0c22.1-0.1,22.2-0.1,22.2-22.2&#xA;&#x9;&#x9;&#x9;c0.1-75.9,0.2-151.9,0.2-227.8c0-14.9-1.8-29.8-1.1-44.6c0.3-5.4,4.1-13.2,8.5-15.2c4.4-2,13.9-0.1,16.8,3.5&#xA;&#x9;&#x9;&#x9;c4.3,5.4,6.7,13.9,6.7,21.1c0.4,86.8,0.2,173.7,0.2,260.5c0,5.2,0.6,10.3,0.9,15.3c26.5-6.6,36.5-20.4,35.9-47.8&#xA;&#x9;&#x9;&#x9;c-2.1-93.8-1.2-187.6-1.3-281.4c0-8.4-1.2-17.2,0.7-25.2c1.3-5.3,6.2-11.9,11-13.7c4.1-1.5,12.1,1.6,15.2,5.3&#xA;&#x9;&#x9;&#x9;c3.6,4.3,5,11.5,5,17.4c0.4,94.3,0.4,188.6,0.6,282.8c0,6,1.3,12,2.3,20.7c9.9-9.3,18-15.8,24.7-23.6c3.8-4.4,7.3-10.8,7.4-16.3&#xA;&#x9;&#x9;&#x9;c0.6-38.2,0.4-76.4,0.2-114.6c-0.4-75.9-1.1-151.9-1.4-227.8c-0.1-16.3,13-26.3,24-17.8c5.2,4.1,8,14.1,8.1,21.5&#xA;&#x9;&#x9;&#x9;c1.1,98.2,1.4,196.5,2.1,294.7c0,5.5,0.9,11,1.6,18.5c7-6.3,11.4-11.1,16.6-14.7c13-9.1,17.5-20.8,16.7-36.9&#xA;&#x9;&#x9;&#x9;c-1.4-29.7-0.6-59.5-0.7-89.3c-0.4-81.9-0.7-163.8-1.5-245.6c-0.1-12.1,4-19.6,16-20.3c12.9-0.7,16.7,8.5,17.3,19.5&#xA;&#x9;&#x9;&#x9;c0.2,3.5,0.2,6.9,0.2,10.4c0.2,99.2,0.3,198.5,0.6,297.7c0,6,0.9,11.9,1.6,20.2c8.2-6.3,13.2-11.2,19.2-14.6&#xA;&#x9;&#x9;&#x9;c12.2-7,14.9-17,14.7-30.8c-0.9-61.5-0.4-123.1-0.4-184.6c0-16.5,6-25.8,16.6-24.4c13.9,1.9,14.2,12.6,14.1,23.7&#xA;&#x9;&#x9;&#x9;c-0.2,56.1-0.2,112.2-0.1,168.2c0,6.2,0.7,12.4,1.1,19.1c35-13,35-13,35.2-47.4c0-4-0.1-7.9-0.1-11.9c0.3-52.1,0.4-104.2,1-156.3&#xA;&#x9;&#x9;&#x9;c0.1-6,1.1-14,5-17.5c3.7-3.4,13.1-4.9,17.2-2.5c4.6,2.7,8.5,10.8,8.6,16.5c0.4,54.6-0.1,109.2-0.4,163.8c0,11.7,0,23.5,0,35.9&#xA;&#x9;&#x9;&#x9;c13.4-2.3,24.4-4.2,37.6-6.4c0-31.2,0.1-61.9,0-92.6c0-12.1,4.1-21.1,17.7-20.3c13.6,0.8,14.2,11.2,14.2,21.8&#xA;&#x9;&#x9;&#x9;c-0.1,26.8,0.2,53.6,0,80.4c-0.1,9.3,2.4,13.8,13.2,14.9c34.8,3.3,66.2,16.5,94.3,37.2c16,11.8,31.5,24.2,47.3,36.1&#xA;&#x9;&#x9;&#x9;c4,3,8.5,5.5,14.6,9.5c-0.6-6.9-0.9-10.9-1.2-14.8c-0.4-4.4-1.1-8.9-1.2-13.3c-3.2-86.1-32.9-163.2-83.6-231.5&#xA;&#x9;&#x9;&#x9;C1253.1,479.3,1112,419.4,941.6,431.5C766.4,443.9,639,531.9,560,688.9c-26.9,53.5-40.3,110.7-41.7,170.5&#xA;&#x9;&#x9;&#x9;c-0.1,4.1,1.8,10.5,4.7,12c13.5,6.8,27.7,12.1,43.8,18.9c0-19.1-0.2-36.4,0.1-53.6c0.2-10.4,5.5-17.5,16.1-17.7&#xA;&#x9;&#x9;&#x9;c10.6-0.2,13.8,7.6,14.2,17.1c0.6,16.4,4,33.1,1.8,49c-3.6,25.9,11.2,37.5,32.1,49.2c0.8-8.8,2.1-16.5,2.1-24.2&#xA;&#x9;&#x9;&#x9;c0-23.8-0.6-47.6-0.7-71.5c-0.1-29.3,0.2-58.6,0.4-87.8c0.1-10.6,6-17.7,16.2-17.7c10.6,0,17.3,6.6,16.8,18.4&#xA;&#x9;&#x9;&#x9;c-0.2,4.5-0.2,8.9-0.2,13.4c0.1,64,0,128,0.5,192c0,4.8,2.1,10.9,5.4,14C679.4,978.3,688.5,984.3,697.2,990.9z M612.3,1135.3&#xA;&#x9;&#x9;&#x9;c46.7,96.8,203.4,187.1,352.1,190.5c197.2,4.6,338.8-93,435.3-262.3c-25.5-32.1-56.8-58.7-97.1-71.6c-17.5-5.6-37-7.5-55.5-7.2&#xA;&#x9;&#x9;&#x9;c-52.6,1-96.5,23.8-134,59.6c-40.2,38.3-80.1,77-120.5,115.2c-29.3,27.8-64.1,46.8-102.2,59.2c-55.5,18-110.8,16.5-163.6-9.4&#xA;&#x9;&#x9;&#x9;c-25.3-12.4-49.1-27.9-73-43C639.8,1157.4,627.1,1146.5,612.3,1135.3z M1410.6,1027.6c3.9-8.5,6-15.4,9.9-20.9&#xA;&#x9;&#x9;&#x9;c6.6-9.1,3.2-15.2-4-21.4c-10.1-8.8-19.7-18.2-29.9-26.8c-88.9-74.5-186.1-75.2-275.5-1.2c-22.9,18.9-43.7,40.3-65.8,60.3&#xA;&#x9;&#x9;&#x9;c-31.6,28.6-61,60.3-95.6,84.7c-74.3,52.4-153.8,62-236.4,17.3c-41.3-22.3-77.7-51-112.8-82c-19.8-17.5-42.1-32.2-65.9-50.2&#xA;&#x9;&#x9;&#x9;c1.7,28.1,11.8,52.9,30.3,67.3c50.5,39.1,101.3,78,153.4,114.8c25.3,17.9,55.8,26,87,27.4c59.4,2.7,111.9-18.2,156.2-55.3&#xA;&#x9;&#x9;&#x9;c48.6-40.7,93.1-86.2,140.1-128.8c78.2-70.9,189.4-94.9,286.3-5.6C1395,1013.6,1401.9,1019.8,1410.6,1027.6z M1431.6,955.4&#xA;&#x9;&#x9;&#x9;c1.4-7.6,1.5-12.7,3.3-17.2c5-13,1.1-22.2-9.8-30.4c-19.4-14.6-37.6-30.9-57.3-44.9c-64.2-45.7-133.4-49.2-205-21&#xA;&#x9;&#x9;&#x9;c-42.2,16.6-76.8,44.9-109.3,75.9c-32,30.5-63,61.9-96.1,91.1c-80.8,71.1-178.3,81.2-270.3,13.1c-38.7-28.6-75.6-59.5-114.3-87.9&#xA;&#x9;&#x9;&#x9;c-15.6-11.4-34.1-18.9-54.5-30c0.5,11.1,1.4,17,0.9,22.7c-1.1,13.5,4.3,20.9,16.8,27.3c37.6,19.5,70.3,46,102.4,73.6&#xA;&#x9;&#x9;&#x9;c26.1,22.5,54.1,44,84,60.9c62.6,35.3,127.7,34.9,190.1-0.5c25.9-14.7,48.5-35.9,71.2-55.7c42.6-37.1,82.1-78.1,126.7-112.5&#xA;&#x9;&#x9;&#x9;c87.3-67.4,192.1-68.6,279.1,2.5C1402.6,933.2,1416.4,943.5,1431.6,955.4z"></path>
&#x9;&#x9;<path d="M697.2,990.9c-8.6-6.5-17.8-12.5-25.6-19.9c-3.3-3.1-5.4-9.2-5.4-14c-0.4-64-0.4-128-0.5-192c0-4.5,0-8.9,0.2-13.4&#xA;&#x9;&#x9;&#x9;c0.5-11.8-6.2-18.3-16.8-18.4c-10.1,0-16.1,7.1-16.2,17.7c-0.2,29.3-0.5,58.6-0.4,87.8c0,23.8,0.7,47.6,0.7,71.5&#xA;&#x9;&#x9;&#x9;c0,7.7-1.3,15.3-2.1,24.2c-20.8-11.7-35.5-21.7-34.5-48.4c0.6-16.9,1.2-33.5,0.6-49.8c-0.4-9.6-3.6-17.3-14.2-17.1&#xA;&#x9;&#x9;&#x9;c-10.6,0.2-16,7.3-16.1,17.7c-0.3,17.3-0.1,34.5-0.1,53.6c-16-6.7-30.2-12.1-43.8-18.9c-2.9-1.5-4.8-7.9-4.7-12&#xA;&#x9;&#x9;&#x9;c1.5-59.8,14.8-117.1,41.7-170.5c79-156.9,206.3-245,381.6-257.4c170.4-12,311.5,47.8,414.6,186.8&#xA;&#x9;&#x9;&#x9;c50.7,68.4,80.4,145.5,83.6,231.5c0.2,4.5,0.8,8.9,1.2,13.3c0.4,3.9,0.7,7.8,1.2,14.8c-6.2-4-10.6-6.4-14.6-9.5&#xA;&#x9;&#x9;&#x9;c-15.8-12-31.4-24.3-47.3-36.1c-28.1-20.7-59.5-33.9-94.3-37.2c-10.8-1-13.3-5.6-13.2-14.9c0.2-26.8-0.1-53.6,0-80.4&#xA;&#x9;&#x9;&#x9;c0-10.6-0.6-21-14.2-21.8c-13.6-0.8-17.7,8.2-17.7,20.3c0.1,30.7,0,61.3,0,92.6c-13.1,2.2-24.2,4.1-37.6,6.4c0-12.5,0-24.2,0-35.9&#xA;&#x9;&#x9;&#x9;c0.2-54.6,0.7-109.2,0.4-163.8c0-5.8-3.9-13.8-8.6-16.5c-4.1-2.4-13.6-0.9-17.2,2.5c-3.8,3.6-4.9,11.5-5,17.5&#xA;&#x9;&#x9;&#x9;c-0.6,52.1-0.8,104.2-1,156.3c0,4,0.1,7.9,0.1,11.9c-0.2,34.4-0.2,34.4-35.2,47.4c-0.4-6.7-1.1-12.9-1.1-19.1&#xA;&#x9;&#x9;&#x9;c0-56.1-0.1-112.2,0.1-168.2c0-11-0.2-21.8-14.1-23.7c-10.6-1.4-16.6,7.9-16.6,24.4c0,61.5-0.4,123.1,0.4,184.6&#xA;&#x9;&#x9;&#x9;c0.2,13.8-2.5,23.7-14.7,30.8c-5.9,3.4-11,8.3-19.2,14.6c-0.7-8.3-1.6-14.2-1.6-20.2c-0.3-99.2-0.4-198.5-0.6-297.7&#xA;&#x9;&#x9;&#x9;c0-3.5,0-7-0.2-10.4c-0.6-11-4.4-20.2-17.3-19.5c-12,0.6-16.1,8.1-16,20.3c0.8,81.9,1.1,163.8,1.5,245.6&#xA;&#x9;&#x9;&#x9;c0.2,29.8-0.7,59.6,0.7,89.3c0.8,16.1-3.7,27.8-16.7,36.9c-5.2,3.6-9.6,8.5-16.6,14.7c-0.7-7.4-1.5-13-1.6-18.5&#xA;&#x9;&#x9;&#x9;c-0.6-98.2-1-196.5-2.1-294.7c-0.1-7.4-2.9-17.5-8.1-21.5c-11-8.6-24.1,1.5-24,17.8c0.4,75.9,1,151.9,1.4,227.8&#xA;&#x9;&#x9;&#x9;c0.2,38.2,0.4,76.4-0.2,114.6c-0.1,5.5-3.6,11.9-7.4,16.3c-6.7,7.8-14.8,14.3-24.7,23.6c-1-8.6-2.2-14.7-2.3-20.7&#xA;&#x9;&#x9;&#x9;c-0.2-94.3-0.2-188.6-0.6-282.8c0-6-1.4-13.2-5-17.4c-3.1-3.7-11.2-6.8-15.2-5.3c-4.8,1.8-9.7,8.3-11,13.7&#xA;&#x9;&#x9;&#x9;c-1.9,8-0.7,16.8-0.7,25.2c0.2,93.8-0.7,187.6,1.3,281.4c0.6,27.4-9.4,41.3-35.9,47.8c-0.3-5-0.9-10.1-0.9-15.3&#xA;&#x9;&#x9;&#x9;c0-86.8,0.2-173.7-0.2-260.5c0-7.2-2.4-15.7-6.7-21.1c-2.9-3.7-12.4-5.6-16.8-3.5c-4.4,2-8.2,9.8-8.5,15.2&#xA;&#x9;&#x9;&#x9;c-0.7,14.8,1.1,29.7,1.1,44.6c0.1,75.9-0.1,151.9-0.2,227.8c0,22.1,0,22.1-22.2,22.2c-3.9,0-7.9,0-13.5,0c-0.4-7.4-1-14-1-20.7&#xA;&#x9;&#x9;&#x9;c-0.3-71.5-0.3-142.9-1.3-214.4c-0.1-6.4-5.5-14.5-11-18.4c-3.3-2.4-13.2-0.2-16.7,3.3c-3.7,3.6-4.6,11.4-4.6,17.3&#xA;&#x9;&#x9;&#x9;c0.4,68.5,1.2,137,1.8,205.4c0.1,5.8-0.6,11.6-1.1,19.6c-10.9-4.1-20.4-6.7-28.9-11.3c-3.5-1.9-6.9-7.9-6.9-12&#xA;&#x9;&#x9;&#x9;c-0.4-108.6-0.3-217.3-0.5-325.9c0-10.8-3.4-20.8-16.1-20.9c-13.5-0.1-15,10.5-14.9,21.1c0.6,84.9,1.2,169.7,1.8,254.6&#xA;&#x9;&#x9;&#x9;c0.1,18.7,0,37.4,0,56.2C700.2,990.1,698.7,990.5,697.2,990.9z"></path>
&#x9;&#x9;<path d="M612.3,1135.3c14.9,11.2,27.6,22,41.6,30.9c23.8,15.1,47.7,30.6,73,43c52.8,25.9,108.1,27.4,163.6,9.4&#xA;&#x9;&#x9;&#x9;c38.1-12.3,72.9-31.4,102.2-59.2c40.4-38.2,80.3-76.8,120.5-115.2c37.6-35.8,81.4-58.6,134-59.6c18.5-0.4,38,1.5,55.5,7.2&#xA;&#x9;&#x9;&#x9;c40.3,13,71.6,39.6,97.1,71.6c-96.5,169.3-238.1,266.9-435.3,262.3C815.7,1322.4,658.9,1232.1,612.3,1135.3z"></path>
&#x9;&#x9;<path d="M1410.6,1027.6c-8.6-7.8-15.6-14-22.5-20.4c-96.9-89.3-208.1-65.3-286.3,5.6c-47,42.6-91.5,88.1-140.1,128.8&#xA;&#x9;&#x9;&#x9;c-44.4,37.1-96.9,58-156.2,55.3c-31.2-1.4-61.7-9.5-87-27.4c-52.1-36.9-102.9-75.7-153.4-114.8c-18.5-14.4-28.6-39.3-30.3-67.3&#xA;&#x9;&#x9;&#x9;c23.8,17.9,46,32.6,65.9,50.2c35,31,71.5,59.7,112.8,82c82.6,44.7,162.2,35.1,236.4-17.3c34.6-24.4,64-56.1,95.6-84.7&#xA;&#x9;&#x9;&#x9;c22-20,42.9-41.3,65.8-60.3c89.4-74,186.6-73.3,275.5,1.2c10.3,8.6,19.8,18,29.9,26.8c7.2,6.2,10.5,12.3,4,21.4&#xA;&#x9;&#x9;&#x9;C1416.5,1012.2,1414.5,1019.1,1410.6,1027.6z"></path>
&#x9;&#x9;<path d="M1431.6,955.4c-15.2-11.9-29-22.2-42.4-33.1c-87-71.1-191.7-69.9-279.1-2.5c-44.6,34.4-84.1,75.4-126.7,112.5&#xA;&#x9;&#x9;&#x9;c-22.7,19.8-45.3,41-71.2,55.7c-62.4,35.4-127.5,35.8-190.1,0.5c-30-16.9-57.9-38.3-84-60.9c-32.1-27.7-64.8-54.2-102.4-73.6&#xA;&#x9;&#x9;&#x9;c-12.4-6.4-17.9-13.9-16.8-27.3c0.5-5.8-0.4-11.7-0.9-22.7c20.4,11,38.9,18.6,54.5,30c38.8,28.4,75.7,59.4,114.3,87.9&#xA;&#x9;&#x9;&#x9;c92,68.1,189.6,58,270.3-13.1c33.1-29.2,64.2-60.6,96.1-91.1c32.5-31,67.2-59.3,109.3-75.9c71.6-28.2,140.8-24.6,205,21&#xA;&#x9;&#x9;&#x9;c19.8,14.1,37.9,30.4,57.3,44.9c10.9,8.2,14.8,17.4,9.8,30.4C1433.2,942.7,1433,947.8,1431.6,955.4z"></path>
&#x9;</g>
&#x9;<g>
&#x9;&#x9;<path d="M482.1,1415.3h80.6c4.6,0,7.9,1,9.8,2.9c2,2,2.9,5.2,2.9,9.8v59.4c0,5.4-1.5,9-4.5,10.9c-1.9,1.2-4.6,1.8-8.2,1.8h-80.6&#xA;&#x9;&#x9;&#x9;V1415.3z M499.1,1432.3v50.9h55.2c2.8,0,4.3-1.4,4.3-4.2v-42.4c0-2.8-1.4-4.2-4.3-4.2H499.1z"></path>
&#x9;&#x9;<path d="M587.9,1500.2V1428c0-5.4,1.5-9,4.5-10.9c1.9-1.2,4.6-1.8,8.3-1.8h67.9c4.7,0,8.4,2,10.9,6.1c1.2,2,1.8,4.2,1.8,6.6v72.1&#xA;&#x9;&#x9;&#x9;h-17v-33.9h-59.4v33.9H587.9z M664.3,1449.2v-12.7c0-1.2-0.4-2.2-1.2-3c-0.8-0.8-1.8-1.2-3.1-1.2h-50.9c-2.8,0-4.2,1.4-4.2,4.2&#xA;&#x9;&#x9;&#x9;v12.7H664.3z"></path>
&#x9;&#x9;<path d="M689.2,1415.3h76.4v17h-29.7v67.9h-17v-67.9h-29.7V1415.3z"></path>
&#x9;&#x9;<path d="M773.5,1500.2V1428c0-5.4,1.5-9,4.5-10.9c1.9-1.2,4.6-1.8,8.3-1.8h67.9c4.7,0,8.4,2,10.9,6.1c1.2,2,1.8,4.2,1.8,6.6v72.1&#xA;&#x9;&#x9;&#x9;h-17v-33.9h-59.4v33.9H773.5z M849.9,1449.2v-12.7c0-1.2-0.4-2.2-1.2-3c-0.8-0.8-1.8-1.2-3.1-1.2h-50.9c-2.8,0-4.2,1.4-4.2,4.2&#xA;&#x9;&#x9;&#x9;v12.7H849.9z"></path>
&#x9;&#x9;<path d="M951.3,1500.2h-17v-84.9h17V1500.2z"></path>
&#x9;&#x9;<path d="M1023.1,1416.6c0.9-0.9,2.3-1.3,4.2-1.3h42.4c4.8,0,8.4,2.1,10.9,6.2c1.2,2,1.8,4.2,1.8,6.6v72.1h-17v-63.6&#xA;&#x9;&#x9;&#x9;c0-1.2-0.4-2.2-1.2-3s-1.8-1.2-3-1.2h-25.5c-2.8,0-4.2,1.4-4.2,4.2v63.6h-17v-63.6c0-1.2-0.4-2.2-1.2-3s-1.8-1.2-3-1.2h-25.5&#xA;&#x9;&#x9;&#x9;c-2.8,0-4.2,1.4-4.2,4.2v63.6h-17V1428c0-5.4,1.5-9,4.5-10.9c1.9-1.2,4.6-1.8,8.3-1.8h42.4&#xA;&#x9;&#x9;&#x9;C1020.4,1415.3,1021.8,1415.7,1023.1,1416.6z"></path>
&#x9;&#x9;<path d="M1095,1500.2v-84.9h80.6c4.7,0,8.4,2,10.9,6.1c1.2,2,1.8,4.2,1.8,6.6v25.5c0,4.2-2,7.8-5.9,10.6c-1.9,1.4-4.2,2.1-6.9,2.1&#xA;&#x9;&#x9;&#x9;h-63.7v33.9H1095z M1171.4,1436.5c0-1.2-0.4-2.2-1.2-3c-0.8-0.8-1.8-1.2-3.1-1.2h-55.2v16.9h55.3c2.8,0,4.1-1.4,4.1-4.2V1436.5z"></path>
&#x9;&#x9;<path d="M1195,1500.2V1428c0-5.4,1.5-9,4.5-10.9c1.9-1.2,4.6-1.8,8.3-1.8h67.9c4.7,0,8.4,2,10.9,6.1c1.2,2,1.8,4.2,1.8,6.6v72.1&#xA;&#x9;&#x9;&#x9;h-17v-33.9h-59.4v33.9H1195z M1271.4,1449.2v-12.7c0-1.2-0.4-2.2-1.2-3c-0.8-0.8-1.8-1.2-3.1-1.2h-50.9c-2.8,0-4.2,1.4-4.2,4.2&#xA;&#x9;&#x9;&#x9;v12.7H1271.4z"></path>
&#x9;&#x9;<path d="M1300.8,1487.4V1428c0-5.4,1.5-9,4.5-10.9c1.9-1.2,4.6-1.8,8.3-1.8h80.6v17h-72.2c-2.8,0-4.2,1.4-4.2,4.2v42.4&#xA;&#x9;&#x9;&#x9;c0,2.8,1.4,4.2,4.2,4.2h72.2v17h-80.6c-6.6,0-10.6-2.1-11.9-6.3C1301,1492,1300.8,1489.9,1300.8,1487.4z"></path>
&#x9;&#x9;<path d="M1404.3,1415.3h76.4v17H1451v67.9h-17v-67.9h-29.7V1415.3z"></path>
&#x9;</g>
&#x9;<g>
&#x9;&#x9;<path d="M517.9,1555.9c1.8,1.4,3.2,3.2,4.2,5.2c1,2.1,1.6,4.3,1.6,6.7c0,3-0.8,5.7-2.3,8.1c-1.5,2.4-3.7,4.3-6.6,5.7&#xA;&#x9;&#x9;&#x9;c-2.9,1.4-6.3,2.1-10.3,2.1h-22v-58.9h21.1c4,0,7.4,0.7,10.2,2c2.8,1.3,4.9,3.1,6.3,5.4c1.4,2.3,2.1,4.8,2.1,7.6&#xA;&#x9;&#x9;&#x9;c0,3.5-0.9,6.4-2.8,8.7c-1.9,2.3-4.4,3.9-7.5,4.9C514.2,1553.6,516.1,1554.5,517.9,1555.9z M490.2,1550.2h12.9&#xA;&#x9;&#x9;&#x9;c3.6,0,6.4-0.8,8.4-2.5c2-1.7,3-4,3-7c0-3-1-5.3-3-7c-2-1.7-4.8-2.5-8.5-2.5h-12.8V1550.2z M512.8,1574.6c2.1-1.8,3.2-4.3,3.2-7.5&#xA;&#x9;&#x9;&#x9;c0-3.3-1.1-5.8-3.4-7.7c-2.3-1.9-5.3-2.8-9-2.8h-13.4v20.8h13.6C507.7,1577.3,510.6,1576.4,512.8,1574.6z"></path>
&#x9;&#x9;<path d="M551,1524.7v37.3c0,5.2,1.3,9.1,3.8,11.7s6.1,3.8,10.7,3.8c4.5,0,8-1.3,10.6-3.8c2.6-2.5,3.8-6.4,3.8-11.7v-37.3h7.7v37.2&#xA;&#x9;&#x9;&#x9;c0,4.9-1,9-3,12.4c-2,3.4-4.6,5.8-8,7.5c-3.4,1.6-7.1,2.5-11.3,2.5c-4.2,0-7.9-0.8-11.3-2.5c-3.4-1.6-6-4.1-7.9-7.5&#xA;&#x9;&#x9;&#x9;c-1.9-3.4-2.9-7.5-2.9-12.4v-37.2H551z"></path>
&#x9;&#x9;<path d="M617.9,1582.2c-3.1-1.4-5.5-3.3-7.2-5.7s-2.6-5.3-2.7-8.5h8.2c0.3,2.8,1.4,5.1,3.4,7c2,1.9,4.9,2.8,8.7,2.8&#xA;&#x9;&#x9;&#x9;c3.7,0,6.5-0.9,8.7-2.7c2.1-1.8,3.2-4.2,3.2-7.1c0-2.3-0.6-4.1-1.9-5.5c-1.2-1.4-2.8-2.5-4.6-3.2c-1.9-0.7-4.4-1.5-7.5-2.4&#xA;&#x9;&#x9;&#x9;c-3.9-1-7-2-9.3-3c-2.3-1-4.3-2.6-6-4.8c-1.7-2.2-2.5-5.1-2.5-8.7c0-3.2,0.8-6.1,2.5-8.5c1.6-2.5,3.9-4.4,6.9-5.7&#xA;&#x9;&#x9;&#x9;c3-1.4,6.4-2,10.2-2c5.5,0,10,1.4,13.6,4.1c3.5,2.8,5.5,6.4,6,11h-8.5c-0.3-2.3-1.5-4.2-3.5-6c-2.1-1.7-4.8-2.6-8.3-2.6&#xA;&#x9;&#x9;&#x9;c-3.2,0-5.8,0.8-7.9,2.5c-2,1.7-3,4-3,7c0,2.1,0.6,3.9,1.8,5.2c1.2,1.4,2.7,2.4,4.5,3.1c1.8,0.7,4.3,1.5,7.5,2.4&#xA;&#x9;&#x9;&#x9;c3.9,1.1,7,2.1,9.4,3.2c2.4,1,4.4,2.6,6.1,4.8c1.7,2.2,2.5,5.1,2.5,8.8c0,2.9-0.8,5.6-2.3,8.1c-1.5,2.5-3.8,4.6-6.8,6.2&#xA;&#x9;&#x9;&#x9;c-3,1.6-6.5,2.4-10.6,2.4C624.4,1584.2,620.9,1583.5,617.9,1582.2z"></path>
&#x9;&#x9;<path d="M676,1524.7v58.9h-7.7v-58.9H676z"></path>
&#x9;&#x9;<path d="M744.6,1583.6h-7.7l-30.9-46.9v46.9h-7.7v-59h7.7l30.9,46.8v-46.8h7.7V1583.6z"></path>
&#x9;&#x9;<path d="M774.5,1531v19.7h21.5v6.3h-21.5v20.3h24v6.3h-31.7v-59h31.7v6.3H774.5z"></path>
&#x9;&#x9;<path d="M827.5,1582.2c-3.1-1.4-5.5-3.3-7.2-5.7c-1.7-2.5-2.6-5.3-2.7-8.5h8.2c0.3,2.8,1.4,5.1,3.4,7c2,1.9,4.9,2.8,8.7,2.8&#xA;&#x9;&#x9;&#x9;c3.7,0,6.5-0.9,8.7-2.7c2.1-1.8,3.2-4.2,3.2-7.1c0-2.3-0.6-4.1-1.9-5.5c-1.2-1.4-2.8-2.5-4.6-3.2c-1.9-0.7-4.4-1.5-7.5-2.4&#xA;&#x9;&#x9;&#x9;c-3.9-1-7-2-9.3-3c-2.3-1-4.3-2.6-6-4.8c-1.7-2.2-2.5-5.1-2.5-8.7c0-3.2,0.8-6.1,2.5-8.5c1.6-2.5,3.9-4.4,6.9-5.7&#xA;&#x9;&#x9;&#x9;c3-1.4,6.4-2,10.2-2c5.5,0,10,1.4,13.6,4.1c3.5,2.8,5.5,6.4,6,11h-8.4c-0.3-2.3-1.5-4.2-3.5-6c-2.1-1.7-4.8-2.6-8.3-2.6&#xA;&#x9;&#x9;&#x9;c-3.2,0-5.8,0.8-7.9,2.5c-2,1.7-3,4-3,7c0,2.1,0.6,3.9,1.8,5.2c1.2,1.4,2.7,2.4,4.5,3.1c1.8,0.7,4.3,1.5,7.5,2.4&#xA;&#x9;&#x9;&#x9;c3.9,1.1,7,2.1,9.4,3.2c2.4,1,4.4,2.6,6.1,4.8c1.7,2.2,2.5,5.1,2.5,8.8c0,2.9-0.8,5.6-2.3,8.1c-1.5,2.5-3.8,4.6-6.8,6.2&#xA;&#x9;&#x9;&#x9;c-3,1.6-6.5,2.4-10.6,2.4C834.1,1584.2,830.6,1583.5,827.5,1582.2z"></path>
&#x9;&#x9;<path d="M886.2,1582.2c-3.1-1.4-5.5-3.3-7.2-5.7c-1.7-2.5-2.6-5.3-2.7-8.5h8.2c0.3,2.8,1.4,5.1,3.4,7c2,1.9,4.9,2.8,8.7,2.8&#xA;&#x9;&#x9;&#x9;c3.7,0,6.5-0.9,8.7-2.7c2.1-1.8,3.2-4.2,3.2-7.1c0-2.3-0.6-4.1-1.9-5.5c-1.2-1.4-2.8-2.5-4.6-3.2c-1.9-0.7-4.4-1.5-7.5-2.4&#xA;&#x9;&#x9;&#x9;c-3.9-1-7-2-9.3-3c-2.3-1-4.3-2.6-6-4.8c-1.7-2.2-2.5-5.1-2.5-8.7c0-3.2,0.8-6.1,2.5-8.5c1.6-2.5,3.9-4.4,6.9-5.7&#xA;&#x9;&#x9;&#x9;c3-1.4,6.4-2,10.2-2c5.5,0,10,1.4,13.6,4.1c3.5,2.8,5.5,6.4,6,11h-8.4c-0.3-2.3-1.5-4.2-3.5-6c-2.1-1.7-4.8-2.6-8.3-2.6&#xA;&#x9;&#x9;&#x9;c-3.2,0-5.8,0.8-7.9,2.5c-2,1.7-3,4-3,7c0,2.1,0.6,3.9,1.8,5.2c1.2,1.4,2.7,2.4,4.5,3.1c1.8,0.7,4.3,1.5,7.5,2.4&#xA;&#x9;&#x9;&#x9;c3.9,1.1,7,2.1,9.4,3.2c2.4,1,4.4,2.6,6.1,4.8c1.7,2.2,2.5,5.1,2.5,8.8c0,2.9-0.8,5.6-2.3,8.1c-1.5,2.5-3.8,4.6-6.8,6.2&#xA;&#x9;&#x9;&#x9;c-3,1.6-6.5,2.4-10.6,2.4C892.8,1584.2,889.3,1583.5,886.2,1582.2z"></path>
&#x9;&#x9;<path d="M976.6,1582.2c-3.1-1.4-5.5-3.3-7.2-5.7c-1.7-2.5-2.6-5.3-2.7-8.5h8.2c0.3,2.8,1.4,5.1,3.4,7c2,1.9,4.9,2.8,8.7,2.8&#xA;&#x9;&#x9;&#x9;c3.7,0,6.5-0.9,8.7-2.7c2.1-1.8,3.2-4.2,3.2-7.1c0-2.3-0.6-4.1-1.9-5.5c-1.2-1.4-2.8-2.5-4.6-3.2c-1.9-0.7-4.4-1.5-7.5-2.4&#xA;&#x9;&#x9;&#x9;c-3.9-1-7-2-9.3-3c-2.3-1-4.3-2.6-6-4.8c-1.7-2.2-2.5-5.1-2.5-8.7c0-3.2,0.8-6.1,2.5-8.5c1.6-2.5,3.9-4.4,6.9-5.7&#xA;&#x9;&#x9;&#x9;c3-1.4,6.4-2,10.2-2c5.5,0,10,1.4,13.6,4.1c3.5,2.8,5.5,6.4,6,11h-8.4c-0.3-2.3-1.5-4.2-3.5-6c-2.1-1.7-4.8-2.6-8.3-2.6&#xA;&#x9;&#x9;&#x9;c-3.2,0-5.8,0.8-7.9,2.5c-2,1.7-3,4-3,7c0,2.1,0.6,3.9,1.8,5.2c1.2,1.4,2.7,2.4,4.5,3.1c1.8,0.7,4.3,1.5,7.5,2.4&#xA;&#x9;&#x9;&#x9;c3.9,1.1,7,2.1,9.4,3.2c2.4,1,4.4,2.6,6.1,4.8c1.7,2.2,2.5,5.1,2.5,8.8c0,2.9-0.8,5.6-2.3,8.1c-1.5,2.5-3.8,4.6-6.8,6.2&#xA;&#x9;&#x9;&#x9;c-3,1.6-6.5,2.4-10.6,2.4C983.2,1584.2,979.7,1583.5,976.6,1582.2z"></path>
&#x9;&#x9;<path d="M1038.9,1580.4c-4.5-2.6-8.1-6.1-10.7-10.7c-2.6-4.6-3.9-9.8-3.9-15.5s1.3-10.9,3.9-15.5c2.6-4.6,6.2-8.2,10.7-10.7&#xA;&#x9;&#x9;&#x9;c4.5-2.6,9.5-3.8,15-3.8c5.5,0,10.5,1.3,15,3.8c4.5,2.6,8.1,6.1,10.6,10.7c2.6,4.6,3.9,9.7,3.9,15.5c0,5.8-1.3,11-3.9,15.5&#xA;&#x9;&#x9;&#x9;c-2.6,4.6-6.1,8.1-10.6,10.7c-4.5,2.6-9.5,3.8-15,3.8C1048.4,1584.2,1043.4,1582.9,1038.9,1580.4z M1064.9,1574.7&#xA;&#x9;&#x9;&#x9;c3.3-1.9,5.9-4.6,7.8-8.2c1.9-3.5,2.8-7.7,2.8-12.3c0-4.7-0.9-8.9-2.8-12.4c-1.9-3.5-4.5-6.2-7.7-8.2c-3.3-1.9-7-2.9-11.2-2.9&#xA;&#x9;&#x9;&#x9;c-4.2,0-7.9,1-11.2,2.9c-3.3,1.9-5.8,4.6-7.7,8.2c-1.9,3.5-2.8,7.6-2.8,12.4c0,4.7,0.9,8.8,2.8,12.3c1.9,3.5,4.5,6.3,7.8,8.2&#xA;&#x9;&#x9;&#x9;c3.3,1.9,7,2.9,11.1,2.9C1057.9,1577.5,1061.6,1576.6,1064.9,1574.7z"></path>
&#x9;&#x9;<path d="M1110.4,1577.4h20.6v6.3h-28.3v-58.9h7.7V1577.4z"></path>
&#x9;&#x9;<path d="M1155.8,1524.7v37.3c0,5.2,1.3,9.1,3.8,11.7c2.6,2.5,6.1,3.8,10.7,3.8c4.5,0,8-1.3,10.6-3.8c2.6-2.5,3.8-6.4,3.8-11.7&#xA;&#x9;&#x9;&#x9;v-37.3h7.7v37.2c0,4.9-1,9-3,12.4s-4.6,5.8-8,7.5c-3.4,1.6-7.1,2.5-11.3,2.5c-4.2,0-7.9-0.8-11.3-2.5c-3.4-1.6-6-4.1-7.9-7.5&#xA;&#x9;&#x9;&#x9;s-2.9-7.5-2.9-12.4v-37.2H1155.8z"></path>
&#x9;&#x9;<path d="M1250.7,1524.7v6.3h-16.1v52.6h-7.7V1531h-16.1v-6.3H1250.7z"></path>
&#x9;&#x9;<path d="M1277,1524.7v58.9h-7.7v-58.9H1277z"></path>
&#x9;&#x9;<path d="M1311,1580.4c-4.5-2.6-8.1-6.1-10.7-10.7c-2.6-4.6-3.9-9.8-3.9-15.5s1.3-10.9,3.9-15.5c2.6-4.6,6.2-8.2,10.7-10.7&#xA;&#x9;&#x9;&#x9;c4.5-2.6,9.5-3.8,15-3.8c5.5,0,10.5,1.3,15,3.8c4.5,2.6,8.1,6.1,10.6,10.7c2.6,4.6,3.9,9.7,3.9,15.5c0,5.8-1.3,11-3.9,15.5&#xA;&#x9;&#x9;&#x9;c-2.6,4.6-6.1,8.1-10.6,10.7c-4.5,2.6-9.5,3.8-15,3.8C1320.5,1584.2,1315.5,1582.9,1311,1580.4z M1337,1574.7&#xA;&#x9;&#x9;&#x9;c3.3-1.9,5.9-4.6,7.8-8.2c1.9-3.5,2.8-7.7,2.8-12.3c0-4.7-0.9-8.9-2.8-12.4c-1.9-3.5-4.5-6.2-7.7-8.2c-3.3-1.9-7-2.9-11.2-2.9&#xA;&#x9;&#x9;&#x9;c-4.2,0-7.9,1-11.2,2.9c-3.3,1.9-5.8,4.6-7.7,8.2c-1.9,3.5-2.8,7.6-2.8,12.4c0,4.7,0.9,8.8,2.8,12.3c1.9,3.5,4.5,6.3,7.8,8.2&#xA;&#x9;&#x9;&#x9;c3.3,1.9,7,2.9,11.1,2.9C1330,1577.5,1333.7,1576.6,1337,1574.7z"></path>
&#x9;&#x9;<path d="M1421.1,1583.6h-7.7l-30.9-46.9v46.9h-7.7v-59h7.7l30.9,46.8v-46.8h7.7V1583.6z"></path>
&#x9;&#x9;<path d="M1451.5,1582.2c-3.1-1.4-5.5-3.3-7.2-5.7s-2.6-5.3-2.7-8.5h8.2c0.3,2.8,1.4,5.1,3.4,7c2,1.9,4.9,2.8,8.7,2.8&#xA;&#x9;&#x9;&#x9;c3.7,0,6.5-0.9,8.7-2.7c2.1-1.8,3.2-4.2,3.2-7.1c0-2.3-0.6-4.1-1.9-5.5c-1.2-1.4-2.8-2.5-4.6-3.2c-1.9-0.7-4.4-1.5-7.5-2.4&#xA;&#x9;&#x9;&#x9;c-3.9-1-7-2-9.3-3c-2.3-1-4.3-2.6-6-4.8c-1.7-2.2-2.5-5.1-2.5-8.7c0-3.2,0.8-6.1,2.5-8.5c1.6-2.5,3.9-4.4,6.9-5.7&#xA;&#x9;&#x9;&#x9;c3-1.4,6.3-2,10.2-2c5.5,0,10,1.4,13.6,4.1c3.5,2.8,5.5,6.4,6,11h-8.5c-0.3-2.3-1.5-4.2-3.5-6c-2.1-1.7-4.8-2.6-8.3-2.6&#xA;&#x9;&#x9;&#x9;c-3.2,0-5.8,0.8-7.9,2.5c-2,1.7-3,4-3,7c0,2.1,0.6,3.9,1.8,5.2c1.2,1.4,2.7,2.4,4.5,3.1c1.8,0.7,4.3,1.5,7.5,2.4&#xA;&#x9;&#x9;&#x9;c3.9,1.1,7,2.1,9.4,3.2c2.4,1,4.4,2.6,6.1,4.8c1.7,2.2,2.5,5.1,2.5,8.8c0,2.9-0.8,5.6-2.3,8.1c-1.5,2.5-3.8,4.6-6.8,6.2&#xA;&#x9;&#x9;&#x9;c-3,1.6-6.5,2.4-10.6,2.4C1458.1,1584.2,1454.6,1583.5,1451.5,1582.2z"></path>
&#x9;</g>
</g>
<g id="Layer_4">
</g>
</svg>